<svg xmlns="http://www.w3.org/2000/svg" height="40" viewBox="0 96 960 960" width="40"><path d="M520 1026.77q-107 0-181.833-58.182-74.833-58.179-108.705-149.359l-88.101-233.356q-12.897-34.18-5.013-53.18 7.885-18.999 30.731-18.999 30.949 0 52.461 22.295 21.513 22.295 33.744 53.808l42.973 110.049h27.334V255.961q0-20.138 13.756-33.895 13.756-13.756 33.602-13.756 19.846 0 33.397 13.756 13.552 13.757 13.552 33.859V576h35.384V171.281q0-20.074 13.885-33.83 13.884-13.757 33.73-13.757 19.846 0 33.731 13.757 13.884 13.756 13.884 33.83V576h35.385V222.463q0-19.964 14.017-33.982 14.018-14.018 33.726-14.018 19.707 0 33.854 14.018 14.146 14.018 14.146 33.982V576h35.384V338.787q0-20.273 14.018-34.222 14.018-13.949 33.725-13.949 19.964 0 33.982 14.018t14.018 33.982v402.256q0 131.256-79.755 208.576Q651.256 1026.77 520 1026.77Z"/></svg>